<mxfile host="app.diagrams.net" agent="Mozilla/5.0 (Macintosh; Intel Mac OS X 10_15_7) AppleWebKit/537.36 (KHTML, like Gecko) Chrome/134.0.0.0 Safari/537.36" version="26.1.1">
  <diagram name="Page-1" id="aNWjU7Pw-YUK6Rk33C4t">
    <mxGraphModel dx="1707" dy="760" grid="0" gridSize="10" guides="1" tooltips="1" connect="1" arrows="1" fold="1" page="0" pageScale="1" pageWidth="827" pageHeight="1169" math="0" shadow="0">
      <root>
        <mxCell id="0" />
        <mxCell id="1" parent="0" />
        <mxCell id="VyYxETfmhLaUMxpQqZmA-1" value="From Dashboard" style="rounded=1;whiteSpace=wrap;arcSize=50;strokeWidth=2;labelBackgroundColor=none;fillColor=#FAE5C7;strokeColor=#0F8B8D;fontColor=#143642;" parent="1" vertex="1">
          <mxGeometry x="114" y="20" width="141" height="39" as="geometry" />
        </mxCell>
        <mxCell id="VyYxETfmhLaUMxpQqZmA-2" value="Products Page" style="whiteSpace=wrap;strokeWidth=2;labelBackgroundColor=none;fillColor=#FAE5C7;strokeColor=#0F8B8D;fontColor=#143642;" parent="1" vertex="1">
          <mxGeometry x="105" y="109" width="160" height="54" as="geometry" />
        </mxCell>
        <mxCell id="VyYxETfmhLaUMxpQqZmA-3" value="Product Action" style="rhombus;strokeWidth=2;whiteSpace=wrap;labelBackgroundColor=none;fillColor=#FAE5C7;strokeColor=#0F8B8D;fontColor=#143642;" parent="1" vertex="1">
          <mxGeometry x="105" y="206" width="158" height="158" as="geometry" />
        </mxCell>
        <mxCell id="VyYxETfmhLaUMxpQqZmA-4" value="View Product List" style="whiteSpace=wrap;strokeWidth=2;labelBackgroundColor=none;fillColor=#FAE5C7;strokeColor=#0F8B8D;fontColor=#143642;" parent="1" vertex="1">
          <mxGeometry x="214" y="385" width="184" height="54" as="geometry" />
        </mxCell>
        <mxCell id="VyYxETfmhLaUMxpQqZmA-5" value="Add New Product" style="whiteSpace=wrap;strokeWidth=2;labelBackgroundColor=none;fillColor=#FAE5C7;strokeColor=#0F8B8D;fontColor=#143642;" parent="1" vertex="1">
          <mxGeometry x="-42" y="385" width="183" height="54" as="geometry" />
        </mxCell>
        <mxCell id="VyYxETfmhLaUMxpQqZmA-7" value="Search/Filter Products" style="whiteSpace=wrap;strokeWidth=2;labelBackgroundColor=none;fillColor=#FAE5C7;strokeColor=#0F8B8D;fontColor=#143642;" parent="1" vertex="1">
          <mxGeometry x="212" y="474" width="186" height="54" as="geometry" />
        </mxCell>
        <mxCell id="VyYxETfmhLaUMxpQqZmA-8" value="Select Product" style="whiteSpace=wrap;strokeWidth=2;labelBackgroundColor=none;fillColor=#FAE5C7;strokeColor=#0F8B8D;fontColor=#143642;" parent="1" vertex="1">
          <mxGeometry x="212" y="555" width="187" height="54" as="geometry" />
        </mxCell>
        <mxCell id="VyYxETfmhLaUMxpQqZmA-9" value="Product Details" style="whiteSpace=wrap;strokeWidth=2;labelBackgroundColor=none;fillColor=#FAE5C7;strokeColor=#0F8B8D;fontColor=#143642;" parent="1" vertex="1">
          <mxGeometry x="212" y="636" width="188" height="54" as="geometry" />
        </mxCell>
        <mxCell id="VyYxETfmhLaUMxpQqZmA-10" value="Edit Product?" style="rhombus;strokeWidth=2;whiteSpace=wrap;labelBackgroundColor=none;fillColor=#FAE5C7;strokeColor=#0F8B8D;fontColor=#143642;" parent="1" vertex="1">
          <mxGeometry x="232" y="717" width="148" height="148" as="geometry" />
        </mxCell>
        <mxCell id="VyYxETfmhLaUMxpQqZmA-11" value="Update Product Details" style="whiteSpace=wrap;strokeWidth=2;labelBackgroundColor=none;fillColor=#FAE5C7;strokeColor=#0F8B8D;fontColor=#143642;" parent="1" vertex="1">
          <mxGeometry x="214" y="909" width="185" height="54" as="geometry" />
        </mxCell>
        <mxCell id="VyYxETfmhLaUMxpQqZmA-12" value="Complete Product Form" style="whiteSpace=wrap;strokeWidth=2;labelBackgroundColor=none;fillColor=#FAE5C7;strokeColor=#0F8B8D;fontColor=#143642;" parent="1" vertex="1">
          <mxGeometry x="-42" y="474" width="184" height="54" as="geometry" />
        </mxCell>
        <mxCell id="VyYxETfmhLaUMxpQqZmA-13" value="Save Product" style="whiteSpace=wrap;strokeWidth=2;labelBackgroundColor=none;fillColor=#FAE5C7;strokeColor=#0F8B8D;fontColor=#143642;" parent="1" vertex="1">
          <mxGeometry x="-42" y="555" width="184" height="54" as="geometry" />
        </mxCell>
        <mxCell id="VyYxETfmhLaUMxpQqZmA-14" value="Product Added Confirmation" style="whiteSpace=wrap;strokeWidth=2;labelBackgroundColor=none;fillColor=#FAE5C7;strokeColor=#0F8B8D;fontColor=#143642;" parent="1" vertex="1">
          <mxGeometry x="-42" y="637" width="184" height="53" as="geometry" />
        </mxCell>
        <mxCell id="VyYxETfmhLaUMxpQqZmA-15" value="" style="curved=0;startArrow=none;endArrow=block;exitX=0.5;exitY=1;entryX=0.5;entryY=0;rounded=0;labelBackgroundColor=none;strokeColor=#A8201A;fontColor=default;" parent="1" source="VyYxETfmhLaUMxpQqZmA-1" target="VyYxETfmhLaUMxpQqZmA-2" edge="1">
          <mxGeometry relative="1" as="geometry">
            <Array as="points" />
          </mxGeometry>
        </mxCell>
        <mxCell id="VyYxETfmhLaUMxpQqZmA-16" value="" style="curved=0;startArrow=none;endArrow=block;exitX=0.5;exitY=1;entryX=0.5;entryY=0;rounded=0;labelBackgroundColor=none;strokeColor=#A8201A;fontColor=default;" parent="1" source="VyYxETfmhLaUMxpQqZmA-2" target="VyYxETfmhLaUMxpQqZmA-3" edge="1">
          <mxGeometry relative="1" as="geometry">
            <Array as="points" />
          </mxGeometry>
        </mxCell>
        <mxCell id="VyYxETfmhLaUMxpQqZmA-17" value="View Products" style="startArrow=none;endArrow=block;exitX=1;exitY=0.5;entryX=0.5;entryY=0;rounded=0;labelBackgroundColor=none;strokeColor=#A8201A;fontColor=default;exitDx=0;exitDy=0;edgeStyle=orthogonalEdgeStyle;" parent="1" source="VyYxETfmhLaUMxpQqZmA-3" target="VyYxETfmhLaUMxpQqZmA-4" edge="1">
          <mxGeometry relative="1" as="geometry" />
        </mxCell>
        <mxCell id="VyYxETfmhLaUMxpQqZmA-18" value="Add Product" style="startArrow=none;endArrow=block;exitX=0;exitY=0.5;entryX=0.5;entryY=0;rounded=0;labelBackgroundColor=none;strokeColor=#A8201A;fontColor=default;exitDx=0;exitDy=0;edgeStyle=orthogonalEdgeStyle;" parent="1" source="VyYxETfmhLaUMxpQqZmA-3" target="VyYxETfmhLaUMxpQqZmA-5" edge="1">
          <mxGeometry relative="1" as="geometry" />
        </mxCell>
        <mxCell id="VyYxETfmhLaUMxpQqZmA-20" value="" style="startArrow=none;endArrow=block;exitX=0.5;exitY=1;entryX=0.5;entryY=0;rounded=0;labelBackgroundColor=none;strokeColor=#A8201A;fontColor=default;exitDx=0;exitDy=0;" parent="1" source="VyYxETfmhLaUMxpQqZmA-4" target="VyYxETfmhLaUMxpQqZmA-7" edge="1">
          <mxGeometry relative="1" as="geometry" />
        </mxCell>
        <mxCell id="VyYxETfmhLaUMxpQqZmA-21" value="" style="curved=0;startArrow=none;endArrow=block;exitX=0.5;exitY=1;entryX=0.5;entryY=0.01;rounded=0;labelBackgroundColor=none;strokeColor=#A8201A;fontColor=default;" parent="1" source="VyYxETfmhLaUMxpQqZmA-7" target="VyYxETfmhLaUMxpQqZmA-8" edge="1">
          <mxGeometry relative="1" as="geometry">
            <Array as="points" />
          </mxGeometry>
        </mxCell>
        <mxCell id="VyYxETfmhLaUMxpQqZmA-22" value="" style="curved=0;startArrow=none;endArrow=block;exitX=0.5;exitY=1.01;entryX=0.5;entryY=0.01;rounded=0;labelBackgroundColor=none;strokeColor=#A8201A;fontColor=default;" parent="1" source="VyYxETfmhLaUMxpQqZmA-8" target="VyYxETfmhLaUMxpQqZmA-9" edge="1">
          <mxGeometry relative="1" as="geometry">
            <Array as="points" />
          </mxGeometry>
        </mxCell>
        <mxCell id="VyYxETfmhLaUMxpQqZmA-23" value="" style="startArrow=none;endArrow=block;exitX=0.5;exitY=1.01;entryX=0.5;entryY=0;rounded=0;labelBackgroundColor=none;strokeColor=#A8201A;fontColor=default;entryDx=0;entryDy=0;" parent="1" source="VyYxETfmhLaUMxpQqZmA-9" target="VyYxETfmhLaUMxpQqZmA-10" edge="1">
          <mxGeometry relative="1" as="geometry" />
        </mxCell>
        <mxCell id="VyYxETfmhLaUMxpQqZmA-24" value="Yes" style="startArrow=none;endArrow=block;exitX=0.5;exitY=1;rounded=0;labelBackgroundColor=none;strokeColor=#A8201A;fontColor=default;entryX=0.5;entryY=0;entryDx=0;entryDy=0;" parent="1" source="VyYxETfmhLaUMxpQqZmA-10" target="VyYxETfmhLaUMxpQqZmA-11" edge="1">
          <mxGeometry x="0.0055" relative="1" as="geometry">
            <mxPoint x="565" y="1127" as="targetPoint" />
            <mxPoint as="offset" />
          </mxGeometry>
        </mxCell>
        <mxCell id="VyYxETfmhLaUMxpQqZmA-25" value="No" style="startArrow=none;endArrow=block;exitX=1;exitY=0.5;entryX=1;entryY=0.5;rounded=0;labelBackgroundColor=none;strokeColor=#A8201A;fontColor=default;exitDx=0;exitDy=0;entryDx=0;entryDy=0;edgeStyle=orthogonalEdgeStyle;" parent="1" source="VyYxETfmhLaUMxpQqZmA-10" target="VyYxETfmhLaUMxpQqZmA-4" edge="1">
          <mxGeometry relative="1" as="geometry">
            <Array as="points">
              <mxPoint x="447" y="791" />
              <mxPoint x="447" y="412" />
            </Array>
          </mxGeometry>
        </mxCell>
        <mxCell id="VyYxETfmhLaUMxpQqZmA-26" value="" style="startArrow=none;endArrow=block;exitX=1;exitY=0.5;rounded=0;labelBackgroundColor=none;strokeColor=#A8201A;fontColor=default;exitDx=0;exitDy=0;entryX=1;entryY=0.5;entryDx=0;entryDy=0;edgeStyle=orthogonalEdgeStyle;" parent="1" source="VyYxETfmhLaUMxpQqZmA-11" target="VyYxETfmhLaUMxpQqZmA-2" edge="1">
          <mxGeometry relative="1" as="geometry">
            <Array as="points">
              <mxPoint x="488" y="936" />
              <mxPoint x="488" y="136" />
            </Array>
            <mxPoint x="759.5" y="1106" as="sourcePoint" />
            <mxPoint x="545" y="376" as="targetPoint" />
          </mxGeometry>
        </mxCell>
        <mxCell id="Q9cA_7FofaaUnEoZjpOy-2" value="Back" style="edgeLabel;html=1;align=center;verticalAlign=middle;resizable=0;points=[];" vertex="1" connectable="0" parent="VyYxETfmhLaUMxpQqZmA-26">
          <mxGeometry x="-0.0126" relative="1" as="geometry">
            <mxPoint as="offset" />
          </mxGeometry>
        </mxCell>
        <mxCell id="VyYxETfmhLaUMxpQqZmA-27" value="" style="curved=0;startArrow=none;endArrow=block;exitX=0.5;exitY=1;entryX=0.5;entryY=0;rounded=0;labelBackgroundColor=none;strokeColor=#A8201A;fontColor=default;" parent="1" source="VyYxETfmhLaUMxpQqZmA-5" target="VyYxETfmhLaUMxpQqZmA-12" edge="1">
          <mxGeometry relative="1" as="geometry">
            <Array as="points" />
          </mxGeometry>
        </mxCell>
        <mxCell id="VyYxETfmhLaUMxpQqZmA-28" value="" style="curved=0;startArrow=none;endArrow=block;exitX=0.5;exitY=1;entryX=0.5;entryY=0.01;rounded=0;labelBackgroundColor=none;strokeColor=#A8201A;fontColor=default;" parent="1" source="VyYxETfmhLaUMxpQqZmA-12" target="VyYxETfmhLaUMxpQqZmA-13" edge="1">
          <mxGeometry relative="1" as="geometry">
            <Array as="points" />
          </mxGeometry>
        </mxCell>
        <mxCell id="VyYxETfmhLaUMxpQqZmA-29" value="" style="curved=0;startArrow=none;endArrow=block;exitX=0.5;exitY=1.01;entryX=0.5;entryY=0.01;rounded=0;labelBackgroundColor=none;strokeColor=#A8201A;fontColor=default;" parent="1" source="VyYxETfmhLaUMxpQqZmA-13" target="VyYxETfmhLaUMxpQqZmA-14" edge="1">
          <mxGeometry relative="1" as="geometry">
            <Array as="points" />
          </mxGeometry>
        </mxCell>
        <mxCell id="VyYxETfmhLaUMxpQqZmA-30" value="" style="startArrow=none;endArrow=block;exitX=0;exitY=0.5;rounded=0;labelBackgroundColor=none;strokeColor=#A8201A;fontColor=default;entryX=0;entryY=0.5;entryDx=0;entryDy=0;exitDx=0;exitDy=0;edgeStyle=orthogonalEdgeStyle;" parent="1" source="VyYxETfmhLaUMxpQqZmA-14" target="VyYxETfmhLaUMxpQqZmA-2" edge="1">
          <mxGeometry relative="1" as="geometry">
            <Array as="points">
              <mxPoint x="-93" y="663" />
              <mxPoint x="-93" y="136" />
            </Array>
            <mxPoint x="184.5" y="900.9999999999998" as="targetPoint" />
          </mxGeometry>
        </mxCell>
        <mxCell id="Q9cA_7FofaaUnEoZjpOy-3" value="Back" style="edgeLabel;html=1;align=center;verticalAlign=middle;resizable=0;points=[];" vertex="1" connectable="0" parent="VyYxETfmhLaUMxpQqZmA-30">
          <mxGeometry x="-0.1358" relative="1" as="geometry">
            <mxPoint as="offset" />
          </mxGeometry>
        </mxCell>
      </root>
    </mxGraphModel>
  </diagram>
</mxfile>
